# xmcd
#
# Track frame offsets: 
#        150
#        19352
#        37835
#        54720
#        70706
#        88273
#        106907
#        125874
#        138879
#        157399
#        175076
#        193776
#        210876
#
# Disc length: 3057 seconds
#
# Revision: 0
# Processed by: cddbd v1.5.2PL0 Copyright (c) Steve Scherf et al.
# Submitted via: ExactAudioCopy v1.3
#
DISCID=b80bef0d
DTITLE=李行亮 - 不忘初心
DYEAR=2013
DGENRE=Pop/Funk
TTITLE0=不忘初心
TTITLE1=不如不见
TTITLE2=如何你才肯
TTITLE3=知心朋友
TTITLE4=沉沙
TTITLE5=往日时光
TTITLE6=岁月轻狂
TTITLE7=山楂树
TTITLE8=飘洋过海来看你
TTITLE9=致青春
TTITLE10=老情歌
TTITLE11=为你我受冷风吹
TTITLE12=原来的我
EXTD=
EXTT0=
EXTT1=
EXTT2=
EXTT3=
EXTT4=
EXTT5=
EXTT6=
EXTT7=
EXTT8=
EXTT9=
EXTT10=
EXTT11=
EXTT12=
PLAYORDER=
